<?xml version="1.0" standalone="no"?><!DOCTYPE svg PUBLIC "-//W3C//DTD SVG 1.1//EN" "http://www.w3.org/Graphics/SVG/1.1/DTD/svg11.dtd"><svg t="1506253040108" class="icon" style="" viewBox="0 0 1024 1024" version="1.1" xmlns="http://www.w3.org/2000/svg" p-id="490" xmlns:xlink="http://www.w3.org/1999/xlink" width="64" height="64"><defs><style type="text/css"></style></defs><path d="M362.155 154.053c16.475 0 30.659 5.673 42.442 17.239 11.783 11.456 17.675 25.313 17.675 41.897v238.396c0 16.475-5.892 30.659-17.675 42.442-11.783 11.893-25.858 17.675-42.442 17.675H123.868c-16.584 0-30.55-5.783-42.006-17.675-11.347-11.783-17.13-25.967-17.13-42.442V213.297c0-16.584 5.783-30.55 17.13-41.897 11.456-11.456 25.422-17.239 42.006-17.239l238.287-0.108m0 446.897c16.584 0 30.659 5.783 42.442 17.13 11.783 11.456 17.675 25.422 17.675 41.897v239.378c0 16.475-5.892 30.55-17.675 41.897-11.783 11.347-25.858 17.13-42.442 17.13H123.868c-16.584 0-30.55-5.783-42.006-17.13-11.347-11.347-17.13-25.313-17.13-41.788V660.085c0-16.475 5.783-30.55 17.13-41.897 11.456-11.456 25.422-17.13 42.006-17.13h238.287v-0.108m448.097 0c16.584 0 30.55 5.783 42.006 17.13 11.347 11.456 17.13 25.422 17.13 41.897v239.378c0 16.475-5.783 30.55-17.13 41.897-11.456 11.347-25.422 17.13-42.006 17.13H571.965c-16.584 0-30.659-5.783-42.442-17.13-11.783-11.456-17.675-25.422-17.675-41.897v-239.27c0-16.475 5.892-30.55 17.675-41.897 11.783-11.456 25.858-17.13 42.442-17.13h238.287v-0.108m130.599-354.485c11.783 11.783 17.675 25.749 17.675 41.678 0 16.039-5.892 29.568-17.675 40.806L775.775 493.917c-11.783 11.783-25.531 17.675-41.242 17.675-15.602 0-29.458-5.892-41.242-17.675l-164.75-164.968c-11.238-11.238-16.911-24.876-16.911-40.806 0-15.929 5.564-29.786 16.911-41.678L693.509 81.498c11.893-11.238 25.64-16.802 41.242-16.802 15.602 0 29.458 5.673 41.242 16.802l164.858 164.967m-0.654 7.201z" p-id="491" fill="#D4D4D4"></path></svg>